<?xml version="1.0" encoding="utf-8"?>
<!-- Generator: Adobe Illustrator 22.1.0, SVG Export Plug-In . SVG Version: 6.00 Build 0)  -->
<svg version="1.1" id="Layer_1" xmlns="http://www.w3.org/2000/svg" xmlns:xlink="http://www.w3.org/1999/xlink" x="0px" y="0px"
	 viewBox="0 0 505 135" style="enable-background:new 0 0 505 135;" xml:space="preserve">
<style type="text/css">
	.st0{fill:#FFFFFF;}
</style>
<g>
	<path class="st0" d="M81.2,65.6c0-23.8-12.7-37.2-36.3-37.2H32.1v74.7H45C69.5,103.1,81.2,91.6,81.2,65.6 M0,132.1V0h44.8
		c20.8,0,35.4,2.8,49.1,15.8c12.5,11.9,19.2,29.2,19.2,50.9c0,20.1-6.5,36.6-19,49.1c-14,13.7-26.4,16.4-44.8,16.4L0,132.1L0,132.1z
		"/>
	<path class="st0" d="M184.7,71.7c-3.5-10.2-11.8-15.8-23.4-15.8c-12.2,0-20.8,6.3-22.9,15.8H184.7z M209.4,103.1
		c-9.6,20.8-26,31.4-48.1,31.4c-15.1,0-27.3-5.2-37.4-16c-9.6-10.2-14.6-22.9-14.6-37c0-13.9,5.3-26.8,15.1-36.6
		c10-10,23.1-15.6,36.5-15.6c31.5,0,53.1,22.9,53.1,60v3.2h-74.7c2.6,10.6,10.1,16.2,22.9,16.2c5.9,0,10.7-1.7,15.1-5.6H209.4
		L209.4,103.1z"/>
	<rect x="212.3" class="st0" width="29" height="132.1"/>
	<path class="st0" d="M314.6,71.7c-3.5-10.2-11.8-15.8-23.4-15.8c-12.2,0-20.8,6.3-22.9,15.8H314.6z M339.3,103.1
		c-9.6,20.8-26,31.4-48.1,31.4c-15.1,0-27.3-5.2-37.4-16c-9.6-10.2-14.6-22.9-14.6-37c0-13.9,5.4-26.8,15.1-36.6
		c10-10,23.1-15.6,36.5-15.6c31.5,0,53.1,22.9,53.1,60v3.2h-74.7c2.6,10.6,10.2,16.2,22.9,16.2c5.9,0,10.7-1.7,15.1-5.6H339.3
		L339.3,103.1z"/>
	<polygon class="st0" points="342.6,0 342.6,28.7 330,28.7 330,50.6 342.6,50.6 342.6,132.1 372.1,132.1 372.1,50.6 385.2,50.6 
		385.2,28.7 372.1,28.7 372.1,0 	"/>
	<path class="st0" d="M446.7,71.7c-3.5-10.2-11.8-15.8-23.4-15.8c-12.2,0-20.8,6.3-22.9,15.8H446.7z M471.4,103.1
		c-9.6,20.8-26,31.4-48.1,31.4c-15.1,0-27.3-5.2-37.4-16c-9.6-10.2-14.6-22.9-14.6-37c0-13.9,5.4-26.8,15.1-36.6
		c10-10,23.1-15.6,36.5-15.6c31.5,0,53.1,22.9,53.1,60v3.2h-74.7c2.6,10.6,10.1,16.2,22.9,16.2c5.9,0,10.7-1.7,15.1-5.6H471.4
		L471.4,103.1z"/>
	<rect x="473.6" y="103.1" class="st0" width="31" height="31.2"/>
	<polygon class="st0" points="468,32.7 468,29.4 482.9,29.4 482.9,32.7 477.5,32.7 477.5,47.7 473.5,47.7 473.5,32.7 	"/>
	<polygon class="st0" points="499,29.4 494.9,42 494.9,42 490.6,29.4 485,29.4 485,47.7 488.8,47.7 488.8,34.8 488.8,34.8 
		493.3,47.7 496.3,47.7 500.8,34.7 500.8,34.7 500.8,47.7 504.6,47.7 504.6,29.4 	"/>
</g>
</svg>
